<svg version="1.1" viewBox="0.0 0.0 960.0 540.0" fill="none" stroke="none" stroke-linecap="square" stroke-miterlimit="10" xmlns:xlink="http://www.w3.org/1999/xlink" xmlns="http://www.w3.org/2000/svg"><clipPath id="g27c0e77704c_0_27.0"><path d="m0 0l960.0 0l0 540.0l-960.0 0l0 -540.0z" clip-rule="nonzero"/></clipPath><g clip-path="url(#g27c0e77704c_0_27.0)"><path fill="#ffffff" d="m0 0l960.0 0l0 540.0l-960.0 0z" fill-rule="evenodd"/><path fill="#000000" fill-opacity="0.0" d="m889.4969 489.57657l57.606323 0l0 41.322845l-57.606323 0z" fill-rule="evenodd"/><path fill="#595959" d="m937.39386 513.91296l0 1.125l-6.296875 0q-0.015625 -0.421875 0.140625 -0.8125q0.234375 -0.640625 0.765625 -1.265625q0.53125 -0.625 1.53125 -1.4530945q1.5625 -1.265625 2.109375 -2.015625q0.546875 -0.75 0.546875 -1.40625q0 -0.703125 -0.5 -1.171875q-0.5 -0.484375 -1.296875 -0.484375q-0.859375 0 -1.375 0.515625q-0.5 0.5 -0.5 1.390625l-1.203125 -0.109375q0.125 -1.359375 0.921875 -2.0625q0.8125 -0.703125 2.171875 -0.703125q1.375 0 2.171875 0.765625q0.8125 0.75 0.8125 1.875q0 0.578125 -0.234375 1.140625q-0.234375 0.546875 -0.78125 1.15625q-0.546875 0.609375 -1.8125 1.6718445q-1.046875 0.890625 -1.359375 1.21875q-0.296875 0.3125 -0.484375 0.625l4.671875 0z" fill-rule="nonzero"/><path fill="#000000" fill-opacity="0.0" d="m129.70341 269.06036l19.682281 0l0 93.60629l19.68779 0" fill-rule="evenodd"/><path stroke="#c2c2c2" stroke-width="1.0" stroke-linejoin="round" stroke-linecap="butt" d="m129.70341 269.06036l19.682281 0l0 93.60629l19.68779 0" fill-rule="evenodd"/><path fill="#000000" fill-opacity="0.0" d="m129.70341 269.06036l19.682281 0l0 -97.41731l19.68779 0" fill-rule="evenodd"/><path stroke="#c2c2c2" stroke-width="1.0" stroke-linejoin="round" stroke-linecap="butt" d="m129.70341 269.06036l19.682281 0l0 -97.41731l19.68779 0" fill-rule="evenodd"/><path fill="#78909c" d="m83.74559 489.21783l0 0c-5.0764847 0 -9.191788 -4.1152954 -9.191788 -9.191772l0 -421.9314c0 -2.4378128 0.96842194 -4.7757797 2.692215 -6.4995728c1.723793 -1.7237968 4.06176 -2.692215 6.4995728 -2.692215l36.766037 0c5.0764847 0 9.191788 4.115303 9.191788 9.191788l0 421.9314c0 5.076477 -4.115303 9.191772 -9.191788 9.191772z" fill-rule="evenodd"/><path stroke="#000000" stroke-width="1.0" stroke-linejoin="round" stroke-linecap="butt" d="m83.74559 489.21783l0 0c-5.0764847 0 -9.191788 -4.1152954 -9.191788 -9.191772l0 -421.9314c0 -2.4378128 0.96842194 -4.7757797 2.692215 -6.4995728c1.723793 -1.7237968 4.06176 -2.692215 6.4995728 -2.692215l36.766037 0c5.0764847 0 9.191788 4.115303 9.191788 9.191788l0 421.9314c0 5.076477 -4.115303 9.191772 -9.191788 9.191772z" fill-rule="evenodd"/><path fill="#ffffff" d="m107.20861 295.96832l-10.421875 0l0 -3.640625q0 -1.890625 0.734375 -2.875q0.71875 -0.984375 2.125 -0.984375q0.765625 0 1.359375 0.390625q0.578125 0.390625 0.84375 1.09375q0.203125 -0.796875 0.8125 -1.25q0.609375 -0.46875 1.484375 -0.46875q1.5 0 2.28125 0.96875q0.765625 0.953125 0.78125 2.71875l0 4.046875zm-4.53125 -2.140625l2.8125 0l0 -1.84375q0 -0.75 -0.359375 -1.171875q-0.375 -0.4375 -1.0 -0.4375q-1.4375 0 -1.453125 1.484375l0 1.96875zm-1.515625 0l0 -1.59375q-0.03125 -1.625 -1.296875 -1.625q-0.71875 0 -1.03125 0.421875q-0.3125 0.40625 -0.3125 1.296875l0 1.5l2.640625 0zm5.265625 -11.712769q0.921875 0.765625 0.921875 2.125q0 1.25 -0.703125 1.90625q-0.71875 0.640625 -2.109375 0.65625l-5.078125 0l0 -2.0625l5.015625 0q1.203125 0 1.203125 -1.109375q0 -1.046875 -0.734375 -1.4375l-5.484375 0l0 -2.078125l7.75 0l0 1.953125l-0.78125 0.046875zm-0.890625 -5.9355774l0 -3.78125l1.671875 0l0 6.421875l-1.265625 0l-4.796875 -3.640625l0 3.53125l-1.6875 0l0 -6.203125l1.234375 0l4.84375 3.671875zm0 -7.4569397l0 -3.78125l1.671875 0l0 6.421875l-1.265625 0l-4.796875 -3.640625l0 3.53125l-1.6875 0l0 -6.203125l1.234375 0l4.84375 3.671875zm1.671875 -13.691315l0 2.15625l-6.859375 4.171875l6.859375 0l0 2.140625l-10.421875 0l0 -2.140625l6.875 -4.1875l-6.875 0l0 -2.140625l10.421875 0zm0.140625 -5.301239q0 1.703125 -1.046875 2.78125q-1.046875 1.0625 -2.78125 1.0625l-0.203125 0q-1.15625 0 -2.078125 -0.453125q-0.921875 -0.453125 -1.421875 -1.265625q-0.5 -0.828125 -0.5 -1.890625q0 -1.59375 1.015625 -2.5q1.0 -0.921875 2.828125 -0.921875l0.84375 0l0 4.9375q0.765625 -0.109375 1.21875 -0.609375q0.453125 -0.5 0.453125 -1.28125q0 -1.1875 -0.859375 -1.859375l1.140625 -1.015625q0.65625 0.46875 1.03125 1.265625q0.359375 0.78125 0.359375 1.75zm-6.359375 0.234375q0 0.625 0.421875 1.015625q0.421875 0.375 1.1875 0.46875l0 -2.875l-0.15625 0q-0.6875 0.015625 -1.0625 0.375q-0.390625 0.359375 -0.390625 1.015625zm-3.421875 -7.062729l1.890625 0l0 -1.328125l1.53125 0l0 1.328125l3.859375 0q0.421875 0 0.609375 -0.15625q0.1875 -0.171875 0.1875 -0.640625q0 -0.34375 -0.046875 -0.609375l1.5625 0q0.1875 0.609375 0.1875 1.25q0 2.171875 -2.1875 2.21875l-4.171875 0l0 1.125l-1.53125 0l0 -1.125l-1.890625 0l0 -2.0625z" fill-rule="nonzero"/><path fill="#6d9eeb" d="m169.06824 153.2625l0 0c0 -5.076477 4.1153107 -9.191772 9.191788 -9.191772l193.74242 0c2.4378052 0 4.7757874 0.9684143 6.4995728 2.6921997c1.7237854 1.7238007 2.6921997 4.0617676 2.6921997 6.4995728l0 36.766037c0 5.0764923 -4.1152954 9.191788 -9.191772 9.191788l-193.74242 0c-5.076477 0 -9.191788 -4.1152954 -9.191788 -9.191788z" fill-rule="evenodd"/><path stroke="#000000" stroke-width="1.0" stroke-linejoin="round" stroke-linecap="butt" d="m169.06824 153.2625l0 0c0 -5.076477 4.1153107 -9.191772 9.191788 -9.191772l193.74242 0c2.4378052 0 4.7757874 0.9684143 6.4995728 2.6921997c1.7237854 1.7238007 2.6921997 4.0617676 2.6921997 6.4995728l0 36.766037c0 5.0764923 -4.1152954 9.191788 -9.191772 9.191788l-193.74242 0c-5.076477 0 -9.191788 -4.1152954 -9.191788 -9.191788z" fill-rule="evenodd"/><path fill="#ffffff" d="m259.51627 166.30365l3.40625 8.5l3.40625 -8.5l1.78125 0l0 10.421875l-1.375 0l0 -4.0625l0.125 -4.375l-3.421875 8.4375l-1.046875 0l-3.40625 -8.421875l0.125 4.359375l0 4.0625l-1.375 0l0 -10.421875l1.78125 0zm12.248718 10.421875l-1.328125 0l0 -7.75l1.328125 0l0 7.75zm-1.421875 -9.796875q0 -0.328125 0.1875 -0.546875q0.203125 -0.21875 0.578125 -0.21875q0.390625 0 0.59375 0.21875q0.203125 0.21875 0.203125 0.546875q0 0.328125 -0.203125 0.546875q-0.203125 0.203125 -0.59375 0.203125q-0.375 0 -0.578125 -0.203125q-0.1875 -0.21875 -0.1875 -0.546875zm6.6504517 8.859375q0.703125 0 1.234375 -0.421875q0.53125 -0.4375 0.59375 -1.078125l1.25 0q-0.03125 0.65625 -0.453125 1.265625q-0.421875 0.59375 -1.140625 0.953125q-0.703125 0.359375 -1.484375 0.359375q-1.578125 0 -2.515625 -1.046875q-0.9375 -1.0625 -0.9375 -2.890625l0 -0.21875q0 -1.140625 0.40625 -2.015625q0.421875 -0.875 1.203125 -1.359375q0.78125 -0.5 1.828125 -0.5q1.3125 0 2.171875 0.78125q0.859375 0.78125 0.921875 2.03125l-1.25 0q-0.0625 -0.75 -0.578125 -1.234375q-0.5 -0.484375 -1.265625 -0.484375q-1.0 0 -1.5625 0.734375q-0.546875 0.71875 -0.546875 2.09375l0 0.25q0 1.328125 0.546875 2.0625q0.546875 0.71875 1.578125 0.71875zm8.312256 -5.625q-0.3125 -0.046875 -0.65625 -0.046875q-1.296875 0 -1.765625 1.109375l0 5.5l-1.328125 0l0 -7.75l1.296875 0l0.015625 0.90625q0.65625 -1.046875 1.84375 -1.046875q0.390625 0 0.59375 0.109375l0 1.21875zm0.7223816 2.625q0 -1.140625 0.4375 -2.046875q0.453125 -0.921875 1.25 -1.40625q0.796875 -0.5 1.828125 -0.5q1.578125 0 2.546875 1.09375q0.984375 1.09375 0.984375 2.921875l0 0.09375q0 1.125 -0.4375 2.03125q-0.4375 0.890625 -1.25 1.390625q-0.796875 0.5 -1.84375 0.5q-1.5625 0 -2.546875 -1.09375q-0.96875 -1.09375 -0.96875 -2.890625l0 -0.09375zm1.328125 0.15625q0 1.28125 0.59375 2.0625q0.59375 0.78125 1.59375 0.78125q1.015625 0 1.609375 -0.78125q0.59375 -0.796875 0.59375 -2.21875q0 -1.28125 -0.609375 -2.0625q-0.59375 -0.796875 -1.59375 -0.796875q-0.984375 0 -1.59375 0.78125q-0.59375 0.78125 -0.59375 2.234375z" fill-rule="nonzero"/><path fill="#6d9eeb" d="m169.06824 344.29663l0 0c0 -5.076477 4.1153107 -9.191803 9.191788 -9.191803l193.74242 0c2.4378052 0 4.7757874 0.9684448 6.4995728 2.6922302c1.7237854 1.7237854 2.6921997 4.0617676 2.6921997 6.4995728l0 36.76602c0 5.076477 -4.1152954 9.191803 -9.191772 9.191803l-193.74242 0c-5.076477 0 -9.191788 -4.115326 -9.191788 -9.191803z" fill-rule="evenodd"/><path stroke="#000000" stroke-width="1.0" stroke-linejoin="round" stroke-linecap="butt" d="m169.06824 344.29663l0 0c0 -5.076477 4.1153107 -9.191803 9.191788 -9.191803l193.74242 0c2.4378052 0 4.7757874 0.9684448 6.4995728 2.6922302c1.7237854 1.7237854 2.6921997 4.0617676 2.6921997 6.4995728l0 36.76602c0 5.076477 -4.1152954 9.191803 -9.191772 9.191803l-193.74242 0c-5.076477 0 -9.191788 -4.115326 -9.191788 -9.191803z" fill-rule="evenodd"/><path fill="#ffffff" d="m257.3085 357.33777l3.40625 8.5l3.40625 -8.5l1.78125 0l0 10.421875l-1.375 0l0 -4.0625l0.125 -4.375l-3.421875 8.4375l-1.046875 0l-3.40625 -8.421875l0.125 4.359375l0 4.0625l-1.3749847 0l0 -10.421875l1.7812347 0zm15.592468 10.421875q-0.109375 -0.234375 -0.1875 -0.8125q-0.921875 0.953125 -2.203125 0.953125q-1.140625 0 -1.875 -0.640625q-0.734375 -0.65625 -0.734375 -1.640625q0 -1.21875 0.921875 -1.875q0.921875 -0.671875 2.578125 -0.671875l1.296875 0l0 -0.609375q0 -0.703125 -0.421875 -1.109375q-0.40625 -0.40625 -1.21875 -0.40625q-0.703125 0 -1.1875 0.359375q-0.484375 0.34375 -0.484375 0.859375l-1.328125 0q0 -0.578125 0.40625 -1.109375q0.421875 -0.546875 1.125 -0.859375q0.703125 -0.328125 1.546875 -0.328125q1.34375 0 2.09375 0.671875q0.765625 0.671875 0.796875 1.84375l0 3.5625q0 1.0625 0.265625 1.703125l0 0.109375l-1.390625 0zm-2.203125 -1.015625q0.625 0 1.1875 -0.3125q0.5625 -0.328125 0.8125 -0.84375l0 -1.578125l-1.046875 0q-2.421875 0 -2.421875 1.421875q0 0.625 0.40625 0.96875q0.421875 0.34375 1.0625 0.34375zm8.5034485 0.078125q0.703125 0 1.234375 -0.421875q0.53125 -0.4375 0.59375 -1.078125l1.25 0q-0.03125 0.65625 -0.453125 1.265625q-0.421875 0.59375 -1.140625 0.953125q-0.703125 0.359375 -1.484375 0.359375q-1.578125 0 -2.515625 -1.046875q-0.9375 -1.0625 -0.9375 -2.890625l0 -0.21875q0 -1.140625 0.40625 -2.015625q0.421875 -0.875 1.203125 -1.359375q0.78125 -0.5 1.828125 -0.5q1.3125 0 2.171875 0.78125q0.859375 0.78125 0.921875 2.03125l-1.25 0q-0.0625 -0.75 -0.578125 -1.234375q-0.5 -0.484375 -1.265625 -0.484375q-1.0 0 -1.5625 0.734375q-0.546875 0.71875 -0.546875 2.09375l0 0.25q0 1.328125 0.546875 2.0625q0.546875 0.71875 1.578125 0.71875zm8.312256 -5.625q-0.3125 -0.046875 -0.65625 -0.046875q-1.296875 0 -1.765625 1.109375l0 5.5l-1.328125 0l0 -7.75l1.296875 0l0.015625 0.90625q0.65625 -1.046875 1.84375 -1.046875q0.390625 0 0.59375 0.109375l0 1.21875zm0.7223816 2.625q0 -1.140625 0.4375 -2.046875q0.453125 -0.921875 1.25 -1.40625q0.796875 -0.5 1.828125 -0.5q1.578125 0 2.546875 1.09375q0.984375 1.09375 0.984375 2.921875l0 0.09375q0 1.125 -0.4375 2.03125q-0.4375 0.890625 -1.25 1.390625q-0.796875 0.5 -1.84375 0.5q-1.5625 0 -2.546875 -1.09375q-0.96875 -1.09375 -0.96875 -2.890625l0 -0.09375zm1.328125 0.15625q0 1.28125 0.59375 2.0625q0.59375 0.78125 1.59375 0.78125q1.015625 0 1.609375 -0.78125q0.59375 -0.796875 0.59375 -2.21875q0 -1.28125 -0.609375 -2.0625q-0.59375 -0.796875 -1.59375 -0.796875q-0.984375 0 -1.59375 0.78125q-0.59375 0.78125 -0.59375 2.234375z" fill-rule="nonzero"/><path fill="#3d85c6" d="m421.1942 104.65504l0 0c0 -5.076477 4.115326 -9.19178 9.191803 -9.19178l193.7424 0c2.4378052 0 4.775757 0.9684143 6.4995728 2.6922073c1.7238159 1.723793 2.6921997 4.06176 2.6921997 6.4995728l0 36.766045c0 5.076477 -4.1152954 9.191772 -9.191772 9.191772l-193.7424 0c-5.076477 0 -9.191803 -4.1152954 -9.191803 -9.191772z" fill-rule="evenodd"/><path stroke="#000000" stroke-width="1.0" stroke-linejoin="round" stroke-linecap="butt" d="m421.1942 104.65504l0 0c0 -5.076477 4.115326 -9.19178 9.191803 -9.19178l193.7424 0c2.4378052 0 4.775757 0.9684143 6.4995728 2.6922073c1.7238159 1.723793 2.6921997 4.06176 2.6921997 6.4995728l0 36.766045c0 5.076477 -4.1152954 9.191772 -9.191772 9.191772l-193.7424 0c-5.076477 0 -9.191803 -4.1152954 -9.191803 -9.191772z" fill-rule="evenodd"/><path fill="#ffffff" d="m511.88995 126.28993l2.984375 -8.59375l1.5 0l-3.859375 10.421875l-1.21875 0l-3.859375 -10.421875l1.5 0l2.953125 8.59375zm7.106018 1.828125l-1.328125 0l0 -7.75l1.328125 0l0 7.75zm-1.421875 -9.796875q0 -0.328125 0.1875 -0.546875q0.203125 -0.21875 0.578125 -0.21875q0.390625 0 0.59375 0.21875q0.203125 0.21875 0.203125 0.546875q0 0.328125 -0.203125 0.546875q-0.203125 0.203125 -0.59375 0.203125q-0.375 0 -0.578125 -0.203125q-0.1875 -0.21875 -0.1875 -0.546875zm8.056702 7.75q0 -0.546875 -0.40625 -0.84375q-0.40625 -0.296875 -1.421875 -0.5q-1.0 -0.21875 -1.59375 -0.515625q-0.578125 -0.3125 -0.875 -0.71875q-0.28125 -0.421875 -0.28125 -1.0q0 -0.9375 0.8125 -1.59375q0.8125 -0.671875 2.0625 -0.671875q1.3125 0 2.125 0.6875q0.828125 0.671875 0.828125 1.734375l-1.328125 0q0 -0.546875 -0.46875 -0.9375q-0.453125 -0.390625 -1.15625 -0.390625q-0.734375 0 -1.140625 0.3125q-0.40625 0.3125 -0.40625 0.828125q0 0.46875 0.375 0.71875q0.390625 0.25 1.375 0.46875q1.0 0.21875 1.609375 0.53125q0.609375 0.296875 0.90625 0.734375q0.296875 0.4375 0.296875 1.0625q0 1.03125 -0.828125 1.65625q-0.828125 0.625 -2.15625 0.625q-0.921875 0 -1.640625 -0.328125q-0.71875 -0.328125 -1.125 -0.921875q-0.390625 -0.59375 -0.390625 -1.28125l1.3125 0q0.046875 0.671875 0.53125 1.0625q0.5 0.390625 1.3125 0.390625q0.75 0 1.203125 -0.296875q0.46875 -0.3125 0.46875 -0.8125zm7.822754 1.28125q-0.765625 0.90625 -2.265625 0.90625q-1.234375 0 -1.890625 -0.71875q-0.640625 -0.71875 -0.65625 -2.125l0 -5.046875l1.328125 0l0 5.015625q0 1.75 1.4375 1.75q1.515625 0 2.015625 -1.125l0 -5.640625l1.328125 0l0 7.75l-1.265625 0l-0.03125 -0.765625zm8.079529 0.765625q-0.109375 -0.234375 -0.1875 -0.8125q-0.921875 0.953125 -2.203125 0.953125q-1.140625 0 -1.875 -0.640625q-0.734375 -0.65625 -0.734375 -1.640625q0 -1.21875 0.921875 -1.875q0.921875 -0.671875 2.578125 -0.671875l1.296875 0l0 -0.609375q0 -0.703125 -0.421875 -1.109375q-0.40625 -0.40625 -1.21875 -0.40625q-0.703125 0 -1.1875 0.359375q-0.484375 0.34375 -0.484375 0.859375l-1.328125 0q0 -0.578125 0.40625 -1.109375q0.421875 -0.546875 1.125 -0.859375q0.703125 -0.328125 1.546875 -0.328125q1.34375 0 2.09375 0.671875q0.765625 0.671875 0.796875 1.84375l0 3.5625q0 1.0625 0.265625 1.703125l0 0.109375l-1.390625 0zm-2.203125 -1.015625q0.625 0 1.1875 -0.3125q0.5625 -0.328125 0.8125 -0.84375l0 -1.578125l-1.046875 0q-2.421875 0 -2.421875 1.421875q0 0.625 0.40625 0.96875q0.421875 0.34375 1.0625 0.34375zm6.831604 1.015625l-1.328125 0l0 -11.0l1.328125 0l0 11.0z" fill-rule="nonzero"/><path fill="#3d85c6" d="m421.1942 199.80464l0 0c0 -5.076477 4.115326 -9.191788 9.191803 -9.191788l193.7424 0c2.4378052 0 4.775757 0.96842957 6.4995728 2.692215c1.7238159 1.7238007 2.6921997 4.0617676 2.6921997 6.4995728l0 36.766037c0 5.0764923 -4.1152954 9.191788 -9.191772 9.191788l-193.7424 0c-5.076477 0 -9.191803 -4.1152954 -9.191803 -9.191788z" fill-rule="evenodd"/><path stroke="#000000" stroke-width="1.0" stroke-linejoin="round" stroke-linecap="butt" d="m421.1942 199.80464l0 0c0 -5.076477 4.115326 -9.191788 9.191803 -9.191788l193.7424 0c2.4378052 0 4.775757 0.96842957 6.4995728 2.692215c1.7238159 1.7238007 2.6921997 4.0617676 2.6921997 6.4995728l0 36.766037c0 5.0764923 -4.1152954 9.191788 -9.191772 9.191788l-193.7424 0c-5.076477 0 -9.191803 -4.1152954 -9.191803 -9.191788z" fill-rule="evenodd"/><path fill="#ffffff" d="m515.3547 220.54892l-4.3750305 0l-0.96875 2.71875l-1.421875 0l3.9687805 -10.421875l1.203125 0l4.0 10.421875l-1.421875 0l-0.984375 -2.71875zm-3.9531555 -1.125l3.5469055 0l-1.78125 -4.875l-1.7656555 4.875zm12.247772 3.078125q-0.765625 0.90625 -2.265625 0.90625q-1.234375 0 -1.890625 -0.71875q-0.640625 -0.71875 -0.65625 -2.125l0 -5.046875l1.328125 0l0 5.015625q0 1.75 1.4375 1.75q1.515625 0 2.015625 -1.125l0 -5.640625l1.328125 0l0 7.75l-1.265625 0l-0.03125 -0.765625zm2.9857788 -3.171875q0 -1.78125 0.84375 -2.859375q0.84375 -1.09375 2.203125 -1.09375q1.359375 0 2.15625 0.9375l0 -4.046875l1.328125 0l0 11.0l-1.21875 0l-0.0625 -0.828125q-0.796875 0.96875 -2.21875 0.96875q-1.34375 0 -2.1875 -1.09375q-0.84375 -1.109375 -0.84375 -2.875l0 -0.109375zm1.3125 0.15625q0 1.3125 0.546875 2.0625q0.546875 0.734375 1.5 0.734375q1.265625 0 1.84375 -1.125l0 -3.5625q-0.59375 -1.09375 -1.828125 -1.09375q-0.96875 0 -1.515625 0.75q-0.546875 0.75 -0.546875 2.234375zm8.703125 3.78125l-1.328125 0l0 -7.75l1.328125 0l0 7.75zm-1.421875 -9.796875q0 -0.328125 0.1875 -0.546875q0.203125 -0.21875 0.578125 -0.21875q0.390625 0 0.59375 0.21875q0.203125 0.21875 0.203125 0.546875q0 0.328125 -0.203125 0.546875q-0.203125 0.203125 -0.59375 0.203125q-0.375 0 -0.578125 -0.203125q-0.1875 -0.21875 -0.1875 -0.546875zm3.1973267 5.859375q0 -1.140625 0.4375 -2.046875q0.453125 -0.921875 1.25 -1.40625q0.796875 -0.5 1.828125 -0.5q1.578125 0 2.546875 1.09375q0.984375 1.09375 0.984375 2.921875l0 0.09375q0 1.125 -0.4375 2.03125q-0.4375 0.890625 -1.25 1.390625q-0.796875 0.5 -1.84375 0.5q-1.5625 0 -2.546875 -1.09375q-0.96875 -1.09375 -0.96875 -2.890625l0 -0.09375zm1.328125 0.15625q0 1.28125 0.59375 2.0625q0.59375 0.78125 1.59375 0.78125q1.015625 0 1.609375 -0.78125q0.59375 -0.796875 0.59375 -2.21875q0 -1.28125 -0.609375 -2.0625q-0.59375 -0.796875 -1.59375 -0.796875q-0.984375 0 -1.59375 0.78125q-0.59375 0.78125 -0.59375 2.234375z" fill-rule="nonzero"/><path fill="#3d85c6" d="m421.1942 294.83878l0 0c0 -5.076477 4.115326 -9.191803 9.191803 -9.191803l193.7424 0c2.4378052 0 4.775757 0.9684143 6.4995728 2.6922302c1.7238159 1.7237854 2.6921997 4.061737 2.6921997 6.4995728l0 36.76602c0 5.076477 -4.1152954 9.191803 -9.191772 9.191803l-193.7424 0c-5.076477 0 -9.191803 -4.115326 -9.191803 -9.191803z" fill-rule="evenodd"/><path stroke="#000000" stroke-width="1.0" stroke-linejoin="round" stroke-linecap="butt" d="m421.1942 294.83878l0 0c0 -5.076477 4.115326 -9.191803 9.191803 -9.191803l193.7424 0c2.4378052 0 4.775757 0.9684143 6.4995728 2.6922302c1.7238159 1.7237854 2.6921997 4.061737 2.6921997 6.4995728l0 36.76602c0 5.076477 -4.1152954 9.191803 -9.191772 9.191803l-193.7424 0c-5.076477 0 -9.191803 -4.115326 -9.191803 -9.191803z" fill-rule="evenodd"/><path fill="#ffffff" d="m484.25925 314.9893q-0.1875 1.65625 -1.21875 2.5625q-1.03125 0.890625 -2.734375 0.890625q-1.84375 0 -2.953125 -1.3125q-1.109375 -1.328125 -1.109375 -3.546875l0 -1.0q0 -1.453125 0.515625 -2.546875q0.515625 -1.109375 1.46875 -1.703125q0.953125 -0.59375 2.203125 -0.59375q1.65625 0 2.65625 0.9375q1.0 0.921875 1.171875 2.546875l-1.375 0q-0.1875 -1.234375 -0.78125 -1.796875q-0.59375 -0.5625 -1.671875 -0.5625q-1.3125 0 -2.0625 0.984375q-0.75 0.96875 -0.75 2.765625l0 1.0q0 1.703125 0.703125 2.703125q0.71875 1.0 1.984375 1.0q1.140625 0 1.75 -0.515625q0.625 -0.515625 0.828125 -1.8125l1.375 0zm1.3207092 -0.625q0 -1.140625 0.4375 -2.046875q0.453125 -0.921875 1.25 -1.40625q0.796875 -0.5 1.828125 -0.5q1.578125 0 2.546875 1.09375q0.984375 1.09375 0.984375 2.921875l0 0.09375q0 1.125 -0.4375 2.03125q-0.4375 0.890625 -1.25 1.390625q-0.796875 0.5 -1.84375 0.5q-1.5625 0 -2.546875 -1.09375q-0.96875 -1.09375 -0.96875 -2.890625l0 -0.09375zm1.328125 0.15625q0 1.28125 0.59375 2.0625q0.59375 0.78125 1.59375 0.78125q1.015625 0 1.609375 -0.78125q0.59375 -0.796875 0.59375 -2.21875q0 -1.28125 -0.609375 -2.0625q-0.59375 -0.796875 -1.59375 -0.796875q-0.984375 0 -1.59375 0.78125q-0.59375 0.78125 -0.59375 2.234375zm8.624268 -3.96875l0.03125 0.859375q0.859375 -1.0 2.296875 -1.0q1.625 0 2.21875 1.25q0.375 -0.5625 1.0 -0.90625q0.625 -0.34375 1.46875 -0.34375q2.546875 0 2.578125 2.703125l0 5.1875l-1.3125 0l0 -5.109375q0 -0.828125 -0.390625 -1.234375q-0.375 -0.421875 -1.265625 -0.421875q-0.734375 0 -1.234375 0.453125q-0.484375 0.4375 -0.5625 1.171875l0 5.140625l-1.328125 0l0 -5.078125q0 -1.6875 -1.65625 -1.6875q-1.296875 0 -1.78125 1.109375l0 5.65625l-1.3125 0l0 -7.75l1.25 0zm12.845673 0l0.03125 0.859375q0.859375 -1.0 2.296875 -1.0q1.6250305 0 2.2187805 1.25q0.375 -0.5625 1.0 -0.90625q0.625 -0.34375 1.46875 -0.34375q2.546875 0 2.578125 2.703125l0 5.1875l-1.3125 0l0 -5.109375q0 -0.828125 -0.390625 -1.234375q-0.375 -0.421875 -1.265625 -0.421875q-0.734375 0 -1.234375 0.453125q-0.484375 0.4375 -0.5625 1.171875l0 5.140625l-1.3281555 0l0 -5.078125q0 -1.6875 -1.65625 -1.6875q-1.296875 0 -1.78125 1.109375l0 5.65625l-1.3125 0l0 -7.75l1.25 0zm16.376923 6.984375q-0.765625 0.90625 -2.265625 0.90625q-1.234375 0 -1.890625 -0.71875q-0.640625 -0.71875 -0.65625 -2.125l0 -5.046875l1.328125 0l0 5.015625q0 1.75 1.4375 1.75q1.515625 0 2.015625 -1.125l0 -5.640625l1.328125 0l0 7.75l-1.265625 0l-0.03125 -0.765625zm4.54834 -6.984375l0.046875 0.984375q0.890625 -1.125 2.3125 -1.125q2.46875 0 2.484375 2.78125l0 5.109375l-1.328125 0l0 -5.125q0 -0.84375 -0.375 -1.234375q-0.375 -0.40625 -1.171875 -0.40625q-0.640625 0 -1.140625 0.34375q-0.484375 0.34375 -0.75 0.90625l0 5.515625l-1.328125 0l0 -7.75l1.25 0zm8.27417 7.75l-1.328125 0l0 -7.75l1.328125 0l0 7.75zm-1.421875 -9.796875q0 -0.328125 0.1875 -0.546875q0.203125 -0.21875 0.578125 -0.21875q0.390625 0 0.59375 0.21875q0.203125 0.21875 0.203125 0.546875q0 0.328125 -0.203125 0.546875q-0.203125 0.203125 -0.59375 0.203125q-0.375 0 -0.578125 -0.203125q-0.1875 -0.21875 -0.1875 -0.546875zm6.6504517 8.859375q0.703125 0 1.234375 -0.421875q0.53125 -0.4375 0.59375 -1.078125l1.25 0q-0.03125 0.65625 -0.453125 1.265625q-0.421875 0.59375 -1.140625 0.953125q-0.703125 0.359375 -1.484375 0.359375q-1.578125 0 -2.515625 -1.046875q-0.9375 -1.0625 -0.9375 -2.890625l0 -0.21875q0 -1.140625 0.40625 -2.015625q0.421875 -0.875 1.203125 -1.359375q0.78125 -0.5 1.828125 -0.5q1.3125 0 2.171875 0.78125q0.859375 0.78125 0.921875 2.03125l-1.25 0q-0.0625 -0.75 -0.578125 -1.234375q-0.5 -0.484375 -1.265625 -0.484375q-1.0 0 -1.5625 0.734375q-0.546875 0.71875 -0.546875 2.09375l0 0.25q0 1.328125 0.546875 2.0625q0.546875 0.71875 1.578125 0.71875zm9.343506 0.9375q-0.109375 -0.234375 -0.1875 -0.8125q-0.921875 0.953125 -2.203125 0.953125q-1.140625 0 -1.875 -0.640625q-0.734375 -0.65625 -0.734375 -1.640625q0 -1.21875 0.921875 -1.875q0.921875 -0.671875 2.578125 -0.671875l1.296875 0l0 -0.609375q0 -0.703125 -0.421875 -1.109375q-0.40625 -0.40625 -1.21875 -0.40625q-0.703125 0 -1.1875 0.359375q-0.484375 0.34375 -0.484375 0.859375l-1.328125 0q0 -0.578125 0.40625 -1.109375q0.421875 -0.546875 1.125 -0.859375q0.703125 -0.328125 1.546875 -0.328125q1.34375 0 2.09375 0.671875q0.765625 0.671875 0.796875 1.84375l0 3.5625q0 1.0625 0.265625 1.703125l0 0.109375l-1.390625 0zm-2.203125 -1.015625q0.625 0 1.1875 -0.3125q0.5625 -0.328125 0.8125 -0.84375l0 -1.578125l-1.046875 0q-2.421875 0 -2.421875 1.421875q0 0.625 0.40625 0.96875q0.421875 0.34375 1.0625 0.34375zm7.190979 -8.609375l0 1.875l1.453125 0l0 1.03125l-1.453125 0l0 4.796875q0 0.46875 0.1875 0.703125q0.203125 0.234375 0.671875 0.234375q0.21875 0 0.625 -0.09375l0 1.078125q-0.53125 0.140625 -1.015625 0.140625q-0.890625 0 -1.34375 -0.53125q-0.453125 -0.546875 -0.453125 -1.53125l0 -4.796875l-1.40625 0l0 -1.03125l1.40625 0l0 -1.875l1.328125 0zm4.4282227 9.625l-1.328125 0l0 -7.75l1.328125 0l0 7.75zm-1.421875 -9.796875q0 -0.328125 0.1875 -0.546875q0.203125 -0.21875 0.578125 -0.21875q0.390625 0 0.59375 0.21875q0.203125 0.21875 0.203125 0.546875q0 0.328125 -0.203125 0.546875q-0.203125 0.203125 -0.59375 0.203125q-0.375 0 -0.578125 -0.203125q-0.1875 -0.21875 -0.1875 -0.546875zm3.1973267 5.859375q0 -1.140625 0.4375 -2.046875q0.453125 -0.921875 1.25 -1.40625q0.796875 -0.5 1.828125 -0.5q1.578125 0 2.546875 1.09375q0.984375 1.09375 0.984375 2.921875l0 0.09375q0 1.125 -0.4375 2.03125q-0.4375 0.890625 -1.25 1.390625q-0.796875 0.5 -1.84375 0.5q-1.5625 0 -2.546875 -1.09375q-0.96875 -1.09375 -0.96875 -2.890625l0 -0.09375zm1.328125 0.15625q0 1.28125 0.59375 2.0625q0.59375 0.78125 1.59375 0.78125q1.015625 0 1.609375 -0.78125q0.59375 -0.796875 0.59375 -2.21875q0 -1.28125 -0.609375 -2.0625q-0.59375 -0.796875 -1.59375 -0.796875q-0.984375 0 -1.59375 0.78125q-0.59375 0.78125 -0.59375 2.234375zm8.624268 -3.96875l0.046875 0.984375q0.890625 -1.125 2.3125 -1.125q2.46875 0 2.484375 2.78125l0 5.109375l-1.328125 0l0 -5.125q0 -0.84375 -0.375 -1.234375q-0.375 -0.40625 -1.171875 -0.40625q-0.640625 0 -1.140625 0.34375q-0.484375 0.34375 -0.75 0.90625l0 5.515625l-1.328125 0l0 -7.75l1.25 0z" fill-rule="nonzero"/><path fill="#3d85c6" d="m421.1942 389.98837l0 0c0 -5.076477 4.115326 -9.191772 9.191803 -9.191772l193.7424 0c2.4378052 0 4.775757 0.9684143 6.4995728 2.6921997c1.7238159 1.7237854 2.6921997 4.0617676 2.6921997 6.4995728l0 36.76602c0 5.0765076 -4.1152954 9.191803 -9.191772 9.191803l-193.7424 0c-5.076477 0 -9.191803 -4.1152954 -9.191803 -9.191803z" fill-rule="evenodd"/><path stroke="#000000" stroke-width="1.0" stroke-linejoin="round" stroke-linecap="butt" d="m421.1942 389.98837l0 0c0 -5.076477 4.115326 -9.191772 9.191803 -9.191772l193.7424 0c2.4378052 0 4.775757 0.9684143 6.4995728 2.6921997c1.7238159 1.7237854 2.6921997 4.0617676 2.6921997 6.4995728l0 36.76602c0 5.0765076 -4.1152954 9.191803 -9.191772 9.191803l-193.7424 0c-5.076477 0 -9.191803 -4.1152954 -9.191803 -9.191803z" fill-rule="evenodd"/><path fill="#ffffff" d="m501.0738 408.81076q-1.765625 -0.515625 -2.578125 -1.25q-0.796875 -0.75 -0.796875 -1.828125q0 -1.234375 0.984375 -2.03125q0.984375 -0.8125 2.546875 -0.8125q1.078125 0 1.921875 0.421875q0.84375 0.40625 1.296875 1.140625q0.46875 0.734375 0.46875 1.59375l-1.390625 0q0 -0.9375 -0.609375 -1.484375q-0.59375 -0.546875 -1.6875 -0.546875q-1.015625 0 -1.578125 0.453125q-0.5625 0.453125 -0.5625 1.234375q0 0.640625 0.53125 1.09375q0.546875 0.4375 1.84375 0.796875q1.296875 0.359375 2.03125 0.8125q0.734375 0.4375 1.078125 1.03125q0.359375 0.578125 0.359375 1.375q0 1.265625 -0.984375 2.03125q-0.984375 0.75 -2.640625 0.75q-1.078125 0 -2.015625 -0.40625q-0.921875 -0.421875 -1.421875 -1.125q-0.5 -0.71875 -0.5 -1.625l1.375 0q0 0.9375 0.6875 1.484375q0.703125 0.546875 1.875 0.546875q1.09375 0 1.671875 -0.4375q0.578125 -0.453125 0.578125 -1.21875q0 -0.765625 -0.546875 -1.171875q-0.53125 -0.421875 -1.9375 -0.828125zm7.2106323 -4.984375l0 1.875l1.453125 0l0 1.03125l-1.453125 0l0 4.796875q0 0.46875 0.1875 0.703125q0.203125 0.234375 0.671875 0.234375q0.21875 0 0.625 -0.09375l0 1.078125q-0.53125 0.140625 -1.015625 0.140625q-0.890625 0 -1.34375 -0.53125q-0.453125 -0.546875 -0.453125 -1.53125l0 -4.796875l-1.40625 0l0 -1.03125l1.40625 0l0 -1.875l1.328125 0zm7.7719727 9.625q-0.109375 -0.234375 -0.1875 -0.8125q-0.921875 0.953125 -2.203125 0.953125q-1.140625 0 -1.875 -0.640625q-0.734375 -0.65625 -0.734375 -1.640625q0 -1.21875 0.921875 -1.875q0.921875 -0.671875 2.578125 -0.671875l1.296875 0l0 -0.609375q0 -0.703125 -0.421875 -1.109375q-0.40625 -0.40625 -1.21875 -0.40625q-0.703125 0 -1.1875 0.359375q-0.484375 0.34375 -0.484375 0.859375l-1.328125 0q0 -0.578125 0.40625 -1.109375q0.421875 -0.546875 1.125 -0.859375q0.703125 -0.328125 1.546875 -0.328125q1.34375 0 2.09375 0.671875q0.765625 0.671875 0.796875 1.84375l0 3.5625q0 1.0625 0.265625 1.703125l0 0.109375l-1.390625 0zm-2.203125 -1.015625q0.625 0 1.1875 -0.3125q0.5625 -0.328125 0.8125 -0.84375l0 -1.578125l-1.046875 0q-2.421875 0 -2.421875 1.421875q0 0.625 0.40625 0.96875q0.421875 0.34375 1.0625 0.34375zm7.190979 -8.609375l0 1.875l1.453125 0l0 1.03125l-1.453125 0l0 4.796875q0 0.46875 0.1875 0.703125q0.203125 0.234375 0.671875 0.234375q0.21875 0 0.625 -0.09375l0 1.078125q-0.53125 0.140625 -1.015625 0.140625q-0.890625 0 -1.34375 -0.53125q-0.453125 -0.546875 -0.453125 -1.53125l0 -4.796875l-1.40625 0l0 -1.03125l1.40625 0l0 -1.875l1.328125 0zm4.4282227 9.625l-1.328125 0l0 -7.75l1.328125 0l0 7.75zm-1.421875 -9.796875q0 -0.328125 0.1875 -0.546875q0.203125 -0.21875 0.578125 -0.21875q0.390625 0 0.59375 0.21875q0.203125 0.21875 0.203125 0.546875q0 0.328125 -0.203125 0.546875q-0.203125 0.203125 -0.59375 0.203125q-0.375 0 -0.578125 -0.203125q-0.1875 -0.21875 -0.1875 -0.546875zm8.056702 7.75q0 -0.546875 -0.40625 -0.84375q-0.40625 -0.296875 -1.421875 -0.5q-1.0 -0.21875 -1.59375 -0.515625q-0.578125 -0.3125 -0.875 -0.71875q-0.28125 -0.421875 -0.28125 -1.0q0 -0.9375 0.8125 -1.59375q0.8125 -0.671875 2.0625 -0.671875q1.3125 0 2.125 0.6875q0.828125 0.671875 0.828125 1.734375l-1.328125 0q0 -0.546875 -0.46875 -0.9375q-0.453125 -0.390625 -1.15625 -0.390625q-0.734375 0 -1.140625 0.3125q-0.40625 0.3125 -0.40625 0.828125q0 0.46875 0.375 0.71875q0.390625 0.25 1.375 0.46875q1.0 0.21875 1.609375 0.53125q0.609375 0.296875 0.90625 0.734375q0.296875 0.4375 0.296875 1.0625q0 1.03125 -0.828125 1.65625q-0.828125 0.625 -2.15625 0.625q-0.921875 0 -1.640625 -0.328125q-0.71875 -0.328125 -1.125 -0.921875q-0.390625 -0.59375 -0.390625 -1.28125l1.3125 0q0.046875 0.671875 0.53125 1.0625q0.5 0.390625 1.3125 0.390625q0.75 0 1.203125 -0.296875q0.46875 -0.3125 0.46875 -0.8125zm4.838379 -7.578125l0 1.875l1.453125 0l0 1.03125l-1.453125 0l0 4.796875q0 0.46875 0.1875 0.703125q0.203125 0.234375 0.671875 0.234375q0.21875 0 0.625 -0.09375l0 1.078125q-0.53125 0.140625 -1.015625 0.140625q-0.890625 0 -1.34375 -0.53125q-0.453125 -0.546875 -0.453125 -1.53125l0 -4.796875l-1.40625 0l0 -1.03125l1.40625 0l0 -1.875l1.328125 0zm4.4282227 9.625l-1.328125 0l0 -7.75l1.328125 0l0 7.75zm-1.421875 -9.796875q0 -0.328125 0.1875 -0.546875q0.203125 -0.21875 0.578125 -0.21875q0.390625 0 0.59375 0.21875q0.203125 0.21875 0.203125 0.546875q0 0.328125 -0.203125 0.546875q-0.203125 0.203125 -0.59375 0.203125q-0.375 0 -0.578125 -0.203125q-0.1875 -0.21875 -0.1875 -0.546875zm6.6505127 8.859375q0.703125 0 1.234375 -0.421875q0.53125 -0.4375 0.59375 -1.078125l1.25 0q-0.03125 0.65625 -0.453125 1.265625q-0.421875 0.59375 -1.140625 0.953125q-0.703125 0.359375 -1.484375 0.359375q-1.578125 0 -2.515625 -1.046875q-0.9375 -1.0625 -0.9375 -2.890625l0 -0.21875q0 -1.140625 0.40625 -2.015625q0.421875 -0.875 1.203125 -1.359375q0.78125 -0.5 1.828125 -0.5q1.3125 0 2.171875 0.78125q0.859375 0.78125 0.921875 2.03125l-1.25 0q-0.0625 -0.75 -0.578125 -1.234375q-0.5 -0.484375 -1.265625 -0.484375q-1.0 0 -1.5625 0.734375q-0.546875 0.71875 -0.546875 2.09375l0 0.25q0 1.328125 0.546875 2.0625q0.546875 0.71875 1.578125 0.71875zm9.07782 -1.109375q0 -0.546875 -0.40625 -0.84375q-0.40625 -0.296875 -1.421875 -0.5q-1.0 -0.21875 -1.59375 -0.515625q-0.57806396 -0.3125 -0.87493896 -0.71875q-0.28125 -0.421875 -0.28125 -1.0q0 -0.9375 0.81243896 -1.59375q0.8125 -0.671875 2.0625 -0.671875q1.3125 0 2.125 0.6875q0.828125 0.671875 0.828125 1.734375l-1.328125 0q0 -0.546875 -0.46875 -0.9375q-0.453125 -0.390625 -1.15625 -0.390625q-0.734375 0 -1.140625 0.3125q-0.40625 0.3125 -0.40625 0.828125q0 0.46875 0.375 0.71875q0.390625 0.25 1.375 0.46875q1.0 0.21875 1.609375 0.53125q0.609375 0.296875 0.90625 0.734375q0.296875 0.4375 0.296875 1.0625q0 1.03125 -0.828125 1.65625q-0.828125 0.625 -2.15625 0.625q-0.921875 0 -1.640625 -0.328125q-0.71868896 -0.328125 -1.124939 -0.921875q-0.390625 -0.59375 -0.390625 -1.28125l1.312439 0q0.046875 0.671875 0.53125 1.0625q0.5 0.390625 1.3125 0.390625q0.75 0 1.203125 -0.296875q0.46875 -0.3125 0.46875 -0.8125z" fill-rule="nonzero"/><path fill="#000000" fill-opacity="0.0" d="m381.1942 171.64552l20.0 0l0 -48.598427l20.0 0" fill-rule="evenodd"/><path stroke="#c2c2c2" stroke-width="1.0" stroke-linejoin="round" stroke-linecap="butt" d="m381.1942 171.64552l20.0 0l0 -48.598427l20.0 0" fill-rule="evenodd"/><path fill="#000000" fill-opacity="0.0" d="m381.1942 171.64552l20.0 0l0 46.551178l20.0 0" fill-rule="evenodd"/><path stroke="#c2c2c2" stroke-width="1.0" stroke-linejoin="round" stroke-linecap="butt" d="m381.1942 171.64552l20.0 0l0 46.551178l20.0 0" fill-rule="evenodd"/><path fill="#000000" fill-opacity="0.0" d="m421.1942 313.22177l-20.0 0l0 49.448822l-20.0 0" fill-rule="evenodd"/><path stroke="#c2c2c2" stroke-width="1.0" stroke-linejoin="round" stroke-linecap="butt" d="m421.1942 313.22177l-20.0 0l0 49.448822l-20.0 0" fill-rule="evenodd"/><path fill="#000000" fill-opacity="0.0" d="m421.1942 408.3714l-20.0 0l0 -45.700806l-20.0 0" fill-rule="evenodd"/><path stroke="#c2c2c2" stroke-width="1.0" stroke-linejoin="round" stroke-linecap="butt" d="m421.1942 408.3714l-20.0 0l0 -45.700806l-20.0 0" fill-rule="evenodd"/><path fill="#212121" d="m673.3202 60.501495l0 0c0 -5.076481 4.1152954 -9.191784 9.1918335 -9.191784l193.74237 0c2.4378052 0 4.775818 0.9684181 6.4995728 2.6922112c1.7238159 1.723793 2.6921997 4.06176 2.6921997 6.4995728l0 36.766037c0 5.0764847 -4.1152954 9.191788 -9.191772 9.191788l-193.74237 0c-5.076538 0 -9.1918335 -4.115303 -9.1918335 -9.191788z" fill-rule="evenodd"/><path stroke="#000000" stroke-width="1.0" stroke-linejoin="round" stroke-linecap="butt" d="m673.3202 60.501495l0 0c0 -5.076481 4.1152954 -9.191784 9.1918335 -9.191784l193.74237 0c2.4378052 0 4.775818 0.9684181 6.4995728 2.6922112c1.7238159 1.723793 2.6921997 4.06176 2.6921997 6.4995728l0 36.766037c0 5.0764847 -4.1152954 9.191788 -9.191772 9.191788l-193.74237 0c-5.076538 0 -9.1918335 -4.115303 -9.1918335 -9.191788z" fill-rule="evenodd"/><path fill="#ffffff" d="m727.784 79.88639l0 4.078125l-1.375 0l0 -10.421875l3.84375 0q1.71875 0 2.6875 0.875q0.96875 0.875 0.96875 2.3125q0 1.515625 -0.953125 2.34375q-0.9375 0.8125 -2.71875 0.8125l-2.453125 0zm0 -1.125l2.46875 0q1.109375 0 1.6875 -0.515625q0.59375 -0.515625 0.59375 -1.5q0 -0.9375 -0.59375 -1.484375q-0.578125 -0.5625 -1.609375 -0.578125l-2.546875 0l0 4.078125zm12.449158 4.4375q-0.765625 0.90625 -2.265625 0.90625q-1.234375 0 -1.890625 -0.71875q-0.640625 -0.71875 -0.65625 -2.125l0 -5.046875l1.328125 0l0 5.015625q0 1.75 1.4375 1.75q1.515625 0 2.015625 -1.125l0 -5.640625l1.328125 0l0 7.75l-1.265625 0l-0.03125 -0.765625zm2.9858398 -3.171875q0 -1.78125 0.84375 -2.859375q0.84375 -1.09375 2.203125 -1.09375q1.359375 0 2.15625 0.9375l0 -4.046875l1.328125 0l0 11.0l-1.21875 0l-0.0625 -0.828125q-0.796875 0.96875 -2.21875 0.96875q-1.34375 0 -2.1875 -1.09375q-0.84375 -1.109375 -0.84375 -2.875l0 -0.109375zm1.3125 0.15625q0 1.3125 0.546875 2.0625q0.546875 0.734375 1.5 0.734375q1.265625 0 1.84375 -1.125l0 -3.5625q-0.59375 -1.09375 -1.828125 -1.09375q-0.96875 0 -1.515625 0.75q-0.546875 0.75 -0.546875 2.234375zm6.953064 -0.15625q0 -1.78125 0.84375 -2.859375q0.84375 -1.09375 2.203125 -1.09375q1.359375 0 2.15625 0.9375l0 -4.046875l1.328125 0l0 11.0l-1.21875 0l-0.0625 -0.828125q-0.796875 0.96875 -2.21875 0.96875q-1.34375 0 -2.1875 -1.09375q-0.84375 -1.109375 -0.84375 -2.875l0 -0.109375zm1.3125 0.15625q0 1.3125 0.546875 2.0625q0.546875 0.734375 1.5 0.734375q1.265625 0 1.84375 -1.125l0 -3.5625q-0.59375 -1.09375 -1.828125 -1.09375q-0.96875 0 -1.515625 0.75q-0.546875 0.75 -0.546875 2.234375zm8.703125 3.78125l-1.328125 0l0 -11.0l1.328125 0l0 11.0zm5.3379517 0.140625q-1.578125 0 -2.5625 -1.03125q-0.984375 -1.03125 -0.984375 -2.765625l0 -0.25q0 -1.140625 0.4375 -2.046875q0.4375 -0.90625 1.21875 -1.421875q0.796875 -0.515625 1.71875 -0.515625q1.515625 0 2.34375 1.0q0.84375 1.0 0.84375 2.84375l0 0.546875l-5.25 0q0.03125 1.15625 0.671875 1.859375q0.640625 0.703125 1.625 0.703125q0.703125 0 1.1875 -0.28125q0.5 -0.296875 0.859375 -0.765625l0.8125 0.625q-0.984375 1.5 -2.921875 1.5zm-0.171875 -6.9375q-0.796875 0 -1.34375 0.59375q-0.546875 0.578125 -0.671875 1.625l3.875 0l0 -0.109375q-0.046875 -1.0 -0.546875 -1.546875q-0.484375 -0.5625 -1.3125 -0.5625zm9.233459 4.75q0 -0.546875 -0.40625 -0.84375q-0.40625 -0.296875 -1.421875 -0.5q-1.0 -0.21875 -1.59375 -0.515625q-0.578125 -0.3125 -0.875 -0.71875q-0.28125 -0.421875 -0.28125 -1.0q0 -0.9375 0.8125 -1.59375q0.8125 -0.671875 2.0625 -0.671875q1.3125 0 2.125 0.6875q0.828125 0.671875 0.828125 1.734375l-1.328125 0q0 -0.546875 -0.46875 -0.9375q-0.453125 -0.390625 -1.15625 -0.390625q-0.734375 0 -1.140625 0.3125q-0.40625 0.3125 -0.40625 0.828125q0 0.46875 0.375 0.71875q0.390625 0.25 1.375 0.46875q1.0 0.21875 1.609375 0.53125q0.609375 0.296875 0.90625 0.734375q0.296875 0.4375 0.296875 1.0625q0 1.03125 -0.828125 1.65625q-0.828125 0.625 -2.15625 0.625q-0.921875 0 -1.640625 -0.328125q-0.71875 -0.328125 -1.125 -0.921875q-0.390625 -0.59375 -0.390625 -1.28125l1.3125 0q0.046875 0.671875 0.53125 1.0625q0.5 0.390625 1.3125 0.390625q0.75 0 1.203125 -0.296875q0.46875 -0.3125 0.46875 -0.8125zm3.307129 2.9375l-1.140625 0l4.359375 -11.3125l1.125 0l-4.34375 11.3125zm13.993103 -5.765625q0 1.53125 -0.515625 2.671875q-0.515625 1.140625 -1.453125 1.75q-0.9375 0.59375 -2.203125 0.59375q-1.234375 0 -2.1875 -0.59375q-0.953125 -0.609375 -1.484375 -1.734375q-0.515625 -1.125 -0.53125 -2.59375l0 -0.75q0 -1.5 0.515625 -2.65625q0.53125 -1.15625 1.484375 -1.765625q0.953125 -0.609375 2.1875 -0.609375q1.25 0 2.203125 0.609375q0.953125 0.59375 1.46875 1.75q0.515625 1.140625 0.515625 2.671875l0 0.65625zm-1.359375 -0.671875q0 -1.859375 -0.75 -2.84375q-0.734375 -0.984375 -2.078125 -0.984375q-1.296875 0 -2.046875 0.984375q-0.75 0.984375 -0.765625 2.75l0 0.765625q0 1.796875 0.75 2.828125q0.75 1.03125 2.078125 1.03125q1.328125 0 2.0625 -0.96875q0.734375 -0.984375 0.75 -2.78125l0 -0.78125zm9.779297 1.765625q0 1.765625 -0.828125 2.84375q-0.8125 1.078125 -2.1875 1.078125q-1.46875 0 -2.265625 -1.03125l-0.0625 0.890625l-1.21875 0l0 -11.0l1.328125 0l0 4.109375q0.796875 -1.0 2.203125 -1.0q1.421875 0 2.21875 1.078125q0.8125 1.0625 0.8125 2.90625l0 0.125zm-1.328125 -0.15625q0 -1.34375 -0.53125 -2.078125q-0.515625 -0.75 -1.5 -0.75q-1.3125 0 -1.875 1.21875l0 3.34375q0.609375 1.21875 1.890625 1.21875q0.953125 0 1.484375 -0.734375q0.53125 -0.734375 0.53125 -2.21875zm4.3632812 -3.8125l0 8.640625q0 2.234375 -2.03125 2.234375q-0.4375 0 -0.8125 -0.125l0 -1.0625q0.234375 0.0625 0.609375 0.0625q0.4375 0 0.671875 -0.25q0.234375 -0.234375 0.234375 -0.828125l0 -8.671875l1.328125 0zm-1.46875 -2.046875q0 -0.3125 0.1875 -0.53125q0.203125 -0.234375 0.59375 -0.234375q0.375 0 0.578125 0.21875q0.203125 0.21875 0.203125 0.546875q0 0.328125 -0.203125 0.546875q-0.203125 0.203125 -0.59375 0.203125q-0.375 0 -0.578125 -0.203125q-0.1875 -0.21875 -0.1875 -0.546875zm6.8119507 9.9375q-1.578125 0 -2.5625 -1.03125q-0.984375 -1.03125 -0.984375 -2.765625l0 -0.25q0 -1.140625 0.4375 -2.046875q0.4375 -0.90625 1.21875 -1.421875q0.796875 -0.515625 1.71875 -0.515625q1.515625 0 2.34375 1.0q0.84375 1.0 0.84375 2.84375l0 0.546875l-5.25 0q0.03125 1.15625 0.671875 1.859375q0.640625 0.703125 1.625 0.703125q0.703125 0 1.1875 -0.28125q0.5 -0.296875 0.859375 -0.765625l0.8125 0.625q-0.984375 1.5 -2.921875 1.5zm-0.171875 -6.9375q-0.796875 0 -1.34375 0.59375q-0.546875 0.578125 -0.671875 1.625l3.875 0l0 -0.109375q-0.046875 -1.0 -0.546875 -1.546875q-0.484375 -0.5625 -1.3125 -0.5625zm7.8271484 5.859375q0.703125 0 1.234375 -0.421875q0.53125 -0.4375 0.59375 -1.078125l1.25 0q-0.03125 0.65625 -0.453125 1.265625q-0.421875 0.59375 -1.140625 0.953125q-0.703125 0.359375 -1.484375 0.359375q-1.578125 0 -2.515625 -1.046875q-0.9375 -1.0625 -0.9375 -2.890625l0 -0.21875q0 -1.140625 0.40625 -2.015625q0.421875 -0.875 1.203125 -1.359375q0.78125 -0.5 1.828125 -0.5q1.3125 0 2.171875 0.78125q0.859375 0.78125 0.921875 2.03125l-1.25 0q-0.0625 -0.75 -0.578125 -1.234375q-0.5 -0.484375 -1.265625 -0.484375q-1.0 0 -1.5625 0.734375q-0.546875 0.71875 -0.546875 2.09375l0 0.25q0 1.328125 0.546875 2.0625q0.546875 0.71875 1.578125 0.71875zm6.359131 -8.6875l0 1.875l1.453125 0l0 1.03125l-1.453125 0l0 4.796875q0 0.46875 0.1875 0.703125q0.203125 0.234375 0.671875 0.234375q0.21875 0 0.625 -0.09375l0 1.078125q-0.53125 0.140625 -1.015625 0.140625q-0.890625 0 -1.34375 -0.53125q-0.453125 -0.546875 -0.453125 -1.53125l0 -4.796875l-1.40625 0l0 -1.03125l1.40625 0l0 -1.875l1.328125 0zm7.5064087 7.578125q0 -0.546875 -0.40625 -0.84375q-0.40625 -0.296875 -1.421875 -0.5q-1.0 -0.21875 -1.59375 -0.515625q-0.578125 -0.3125 -0.875 -0.71875q-0.28125 -0.421875 -0.28125 -1.0q0 -0.9375 0.8125 -1.59375q0.8125 -0.671875 2.0625 -0.671875q1.3125 0 2.125 0.6875q0.828125 0.671875 0.828125 1.734375l-1.328125 0q0 -0.546875 -0.46875 -0.9375q-0.453125 -0.390625 -1.15625 -0.390625q-0.734375 0 -1.140625 0.3125q-0.40625 0.3125 -0.40625 0.828125q0 0.46875 0.375 0.71875q0.390625 0.25 1.375 0.46875q1.0 0.21875 1.609375 0.53125q0.609375 0.296875 0.90625 0.734375q0.296875 0.4375 0.296875 1.0625q0 1.03125 -0.828125 1.65625q-0.828125 0.625 -2.15625 0.625q-0.921875 0 -1.640625 -0.328125q-0.71875 -0.328125 -1.125 -0.921875q-0.390625 -0.59375 -0.390625 -1.28125l1.3125 0q0.046875 0.671875 0.53125 1.0625q0.5 0.390625 1.3125 0.390625q0.75 0 1.203125 -0.296875q0.46875 -0.3125 0.46875 -0.8125z" fill-rule="nonzero"/><path fill="#212121" d="m673.3202 148.80858l0 0c0 -5.076477 4.1152954 -9.191788 9.1918335 -9.191788l193.74237 0c2.4378052 0 4.775818 0.96842957 6.4995728 2.692215c1.7238159 1.7238007 2.6921997 4.0617676 2.6921997 6.4995728l0 36.766037c0 5.0764923 -4.1152954 9.191788 -9.191772 9.191788l-193.74237 0c-5.076538 0 -9.1918335 -4.1152954 -9.1918335 -9.191788z" fill-rule="evenodd"/><path stroke="#000000" stroke-width="1.0" stroke-linejoin="round" stroke-linecap="butt" d="m673.3202 148.80858l0 0c0 -5.076477 4.1152954 -9.191788 9.1918335 -9.191788l193.74237 0c2.4378052 0 4.775818 0.96842957 6.4995728 2.692215c1.7238159 1.7238007 2.6921997 4.0617676 2.6921997 6.4995728l0 36.766037c0 5.0764923 -4.1152954 9.191788 -9.191772 9.191788l-193.74237 0c-5.076538 0 -9.1918335 -4.1152954 -9.1918335 -9.191788z" fill-rule="evenodd"/><path fill="#ffffff" d="m737.89795 161.84973l3.40625 8.5l3.40625 -8.5l1.78125 0l0 10.421875l-1.375 0l0 -4.0625l0.125 -4.375l-3.421875 8.4375l-1.046875 0l-3.40625 -8.421875l0.125 4.359375l0 4.0625l-1.375 0l0 -10.421875l1.78125 0zm10.467468 6.484375q0 -1.140625 0.4375 -2.046875q0.453125 -0.921875 1.25 -1.40625q0.796875 -0.5 1.828125 -0.5q1.578125 0 2.546875 1.09375q0.984375 1.09375 0.984375 2.921875l0 0.09375q0 1.125 -0.4375 2.03125q-0.4375 0.890625 -1.25 1.390625q-0.796875 0.5 -1.84375 0.5q-1.5625 0 -2.546875 -1.09375q-0.96875 -1.09375 -0.96875 -2.890625l0 -0.09375zm1.328125 0.15625q0 1.28125 0.59375 2.0625q0.59375 0.78125 1.59375 0.78125q1.015625 0 1.609375 -0.78125q0.59375 -0.796875 0.59375 -2.21875q0 -1.28125 -0.609375 -2.0625q-0.59375 -0.796875 -1.59375 -0.796875q-0.984375 0 -1.59375 0.78125q-0.59375 0.78125 -0.59375 2.234375zm9.829346 1.984375l1.90625 -5.953125l1.359375 0l-2.78125 7.75l-1.0 0l-2.8125 -7.75l1.359375 0l1.96875 5.953125zm7.6622925 1.9375q-1.578125 0 -2.5625 -1.03125q-0.984375 -1.03125 -0.984375 -2.765625l0 -0.25q0 -1.140625 0.4375 -2.046875q0.4375 -0.90625 1.21875 -1.421875q0.796875 -0.515625 1.71875 -0.515625q1.515625 0 2.34375 1.0q0.84375 1.0 0.84375 2.84375l0 0.546875l-5.25 0q0.03125 1.15625 0.671875 1.859375q0.640625 0.703125 1.625 0.703125q0.703125 0 1.1875 -0.28125q0.5 -0.296875 0.859375 -0.765625l0.8125 0.625q-0.984375 1.5 -2.921875 1.5zm-0.171875 -6.9375q-0.796875 0 -1.34375 0.59375q-0.546875 0.578125 -0.671875 1.625l3.875 0l0 -0.109375q-0.046875 -1.0 -0.546875 -1.546875q-0.484375 -0.5625 -1.3125 -0.5625zm5.9677734 -0.953125l0.03125 0.859375q0.859375 -1.0 2.296875 -1.0q1.625 0 2.21875 1.25q0.375 -0.5625 1.0 -0.90625q0.625 -0.34375 1.46875 -0.34375q2.546875 0 2.578125 2.703125l0 5.1875l-1.3125 0l0 -5.109375q0 -0.828125 -0.390625 -1.234375q-0.375 -0.421875 -1.265625 -0.421875q-0.734375 0 -1.234375 0.453125q-0.484375 0.4375 -0.5625 1.171875l0 5.140625l-1.328125 0l0 -5.078125q0 -1.6875 -1.65625 -1.6875q-1.296875 0 -1.78125 1.109375l0 5.65625l-1.3125 0l0 -7.75l1.25 0zm14.814453 7.890625q-1.578125 0 -2.5625 -1.03125q-0.984375 -1.03125 -0.984375 -2.765625l0 -0.25q0 -1.140625 0.4375 -2.046875q0.4375 -0.90625 1.21875 -1.421875q0.796875 -0.515625 1.71875 -0.515625q1.515625 0 2.34375 1.0q0.84375 1.0 0.84375 2.84375l0 0.546875l-5.25 0q0.03125 1.15625 0.671875 1.859375q0.640625 0.703125 1.625 0.703125q0.703125 0 1.1875 -0.28125q0.5 -0.296875 0.859375 -0.765625l0.8125 0.625q-0.984375 1.5 -2.921875 1.5zm-0.171875 -6.9375q-0.796875 0 -1.34375 0.59375q-0.546875 0.578125 -0.671875 1.625l3.875 0l0 -0.109375q-0.046875 -1.0 -0.546875 -1.546875q-0.484375 -0.5625 -1.3125 -0.5625zm5.9677734 -0.953125l0.046875 0.984375q0.890625 -1.125 2.3125 -1.125q2.46875 0 2.484375 2.78125l0 5.109375l-1.328125 0l0 -5.125q0 -0.84375 -0.375 -1.234375q-0.375 -0.40625 -1.171875 -0.40625q-0.640625 0 -1.140625 0.34375q-0.484375 0.34375 -0.75 0.90625l0 5.515625l-1.328125 0l0 -7.75l1.25 0zm8.633606 -1.875l0 1.875l1.453125 0l0 1.03125l-1.453125 0l0 4.796875q0 0.46875 0.1875 0.703125q0.203125 0.234375 0.671875 0.234375q0.21875 0 0.625 -0.09375l0 1.078125q-0.53125 0.140625 -1.015625 0.140625q-0.890625 0 -1.34375 -0.53125q-0.453125 -0.546875 -0.453125 -1.53125l0 -4.796875l-1.40625 0l0 -1.03125l1.40625 0l0 -1.875l1.328125 0zm3.2563477 10.515625l-1.140625 0l4.359375 -11.3125l1.125 0l-4.34375 11.3125zm7.461853 -0.890625l-1.375 0l0 -10.421875l1.375 0l0 10.421875zm2.501709 0l0 -10.421875l2.953125 0q1.359375 0 2.390625 0.609375q1.046875 0.59375 1.609375 1.703125q0.578125 1.109375 0.59375 2.546875l0 0.671875q0 1.46875 -0.578125 2.578125q-0.5625 1.109375 -1.625 1.703125q-1.046875 0.59375 -2.453125 0.609375l-2.890625 0zm1.375 -9.28125l0 8.15625l1.453125 0q1.59375 0 2.46875 -0.984375q0.890625 -0.984375 0.890625 -2.8125l0 -0.609375q0 -1.78125 -0.84375 -2.765625q-0.828125 -0.984375 -2.359375 -0.984375l-1.609375 0z" fill-rule="nonzero"/><path fill="#000000" fill-opacity="0.0" d="m633.3202 123.038055l20.0 0l0 -44.15748l20.0 0" fill-rule="evenodd"/><path stroke="#c2c2c2" stroke-width="1.0" stroke-linejoin="round" stroke-linecap="butt" d="m633.3202 123.038055l20.0 0l0 -44.15748l20.0 0" fill-rule="evenodd"/><path fill="#000000" fill-opacity="0.0" d="m673.3202 167.1916l-20.0 0l0 -44.157486l-20.0 0" fill-rule="evenodd"/><path stroke="#c2c2c2" stroke-width="1.0" stroke-linejoin="round" stroke-linecap="butt" d="m673.3202 167.1916l-20.0 0l0 -44.157486l-20.0 0" fill-rule="evenodd"/><path fill="#212121" d="m673.3202 250.68523l0 0c0 -5.0764923 4.1152954 -9.191788 9.1918335 -9.191788l193.74237 0c2.4378052 0 4.775818 0.9684143 6.4995728 2.692215c1.7238159 1.7237854 2.6921997 4.0617523 2.6921997 6.4995728l0 36.766037c0 5.076477 -4.1152954 9.191772 -9.191772 9.191772l-193.74237 0c-5.076538 0 -9.1918335 -4.1152954 -9.1918335 -9.191772z" fill-rule="evenodd"/><path stroke="#000000" stroke-width="1.0" stroke-linejoin="round" stroke-linecap="butt" d="m673.3202 250.68523l0 0c0 -5.0764923 4.1152954 -9.191788 9.1918335 -9.191788l193.74237 0c2.4378052 0 4.775818 0.9684143 6.4995728 2.692215c1.7238159 1.7237854 2.6921997 4.0617523 2.6921997 6.4995728l0 36.766037c0 5.076477 -4.1152954 9.191772 -9.191772 9.191772l-193.74237 0c-5.076538 0 -9.1918335 -4.1152954 -9.1918335 -9.191772z" fill-rule="evenodd"/><path fill="#ffffff" d="m748.7801 274.14825l0 -10.421875l3.40625 0q1.703125 0 2.546875 0.703125q0.859375 0.703125 0.859375 2.078125q0 0.734375 -0.421875 1.296875q-0.40625 0.546875 -1.125 0.859375q0.859375 0.234375 1.34375 0.90625q0.484375 0.65625 0.484375 1.578125q0 1.390625 -0.90625 2.203125q-0.90625 0.796875 -2.5625 0.796875l-3.625 0zm1.375 -4.875l0 3.75l2.28125 0q0.953125 0 1.5 -0.5q0.5625 -0.5 0.5625 -1.359375q0 -1.890625 -2.046875 -1.890625l-2.296875 0zm0 -1.09375l2.078125 0q0.90625 0 1.4375 -0.453125q0.546875 -0.453125 0.546875 -1.234375q0 -0.859375 -0.5 -1.234375q-0.5 -0.390625 -1.53125 -0.390625l-2.03125 0l0 3.3125zm8.983765 5.96875l-1.328125 0l0 -11.0l1.328125 0l0 11.0zm1.7754517 -3.9375q0 -1.140625 0.4375 -2.046875q0.453125 -0.921875 1.25 -1.40625q0.796875 -0.5 1.828125 -0.5q1.578125 0 2.546875 1.09375q0.984375 1.09375 0.984375 2.921875l0 0.09375q0 1.125 -0.4375 2.03125q-0.4375 0.890625 -1.25 1.390625q-0.796875 0.5 -1.84375 0.5q-1.5625 0 -2.546875 -1.09375q-0.96875 -1.09375 -0.96875 -2.890625l0 -0.09375zm1.328125 0.15625q0 1.28125 0.59375 2.0625q0.59375 0.78125 1.59375 0.78125q1.015625 0 1.609375 -0.78125q0.59375 -0.796875 0.59375 -2.21875q0 -1.28125 -0.609375 -2.0625q-0.59375 -0.796875 -1.59375 -0.796875q-0.984375 0 -1.59375 0.78125q-0.59375 0.78125 -0.59375 2.234375zm7.0617676 -0.15625q0 -1.8125 0.828125 -2.875q0.84375 -1.078125 2.234375 -1.078125q1.40625 0 2.203125 1.0l0.0625 -0.859375l1.21875 0l0 7.5625q0 1.5 -0.890625 2.359375q-0.890625 0.875 -2.40625 0.875q-0.828125 0 -1.640625 -0.359375q-0.796875 -0.359375 -1.21875 -0.984375l0.6875 -0.78125q0.859375 1.046875 2.078125 1.046875q0.96875 0 1.5 -0.546875q0.546875 -0.546875 0.546875 -1.53125l0 -0.65625q-0.78125 0.90625 -2.15625 0.90625q-1.359375 0 -2.203125 -1.09375q-0.84375 -1.09375 -0.84375 -2.984375zm1.328125 0.15625q0 1.3125 0.53125 2.0625q0.546875 0.734375 1.515625 0.734375q1.25 0 1.828125 -1.140625l0 -3.53125q-0.609375 -1.109375 -1.8125 -1.109375q-0.96875 0 -1.515625 0.75q-0.546875 0.75 -0.546875 2.234375zm7.4726562 4.671875l-1.140625 0l4.359375 -11.3125l1.125 0l-4.34375 11.3125zm13.180603 -10.171875l-3.34375 0l0 9.28125l-1.375 0l0 -9.28125l-3.34375 0l0 -1.140625l8.0625 0l0 1.140625zm0.2861328 5.34375q0 -1.140625 0.4375 -2.046875q0.453125 -0.921875 1.25 -1.40625q0.796875 -0.5 1.828125 -0.5q1.578125 0 2.546875 1.09375q0.984375 1.09375 0.984375 2.921875l0 0.09375q0 1.125 -0.4375 2.03125q-0.4375 0.890625 -1.25 1.390625q-0.796875 0.5 -1.84375 0.5q-1.5625 0 -2.546875 -1.09375q-0.96875 -1.09375 -0.96875 -2.890625l0 -0.09375zm1.328125 0.15625q0 1.28125 0.59375 2.0625q0.59375 0.78125 1.59375 0.78125q1.015625 0 1.609375 -0.78125q0.59375 -0.796875 0.59375 -2.21875q0 -1.28125 -0.609375 -2.0625q-0.59375 -0.796875 -1.59375 -0.796875q-0.984375 0 -1.59375 0.78125q-0.59375 0.78125 -0.59375 2.234375zm7.0305176 -0.15625q0 -1.140625 0.4375 -2.046875q0.453125 -0.921875 1.25 -1.40625q0.796875 -0.5 1.828125 -0.5q1.578125 0 2.546875 1.09375q0.984375 1.09375 0.984375 2.921875l0 0.09375q0 1.125 -0.4375 2.03125q-0.4375 0.890625 -1.25 1.390625q-0.796875 0.5 -1.84375 0.5q-1.5625 0 -2.546875 -1.09375q-0.96875 -1.09375 -0.96875 -2.890625l0 -0.09375zm1.328125 0.15625q0 1.28125 0.59375 2.0625q0.59375 0.78125 1.59375 0.78125q1.015625 0 1.609375 -0.78125q0.59375 -0.796875 0.59375 -2.21875q0 -1.28125 -0.609375 -2.0625q-0.59375 -0.796875 -1.59375 -0.796875q-0.984375 0 -1.59375 0.78125q-0.59375 0.78125 -0.59375 2.234375zm8.811768 3.78125l-1.328125 0l0 -11.0l1.328125 0l0 11.0z" fill-rule="nonzero"/><path fill="#212121" d="m673.3202 338.9923l0 0c0 -5.076477 4.1152954 -9.191772 9.1918335 -9.191772l193.74237 0c2.4378052 0 4.775818 0.9684143 6.4995728 2.6921997c1.7238159 1.7237854 2.6921997 4.0617676 2.6921997 6.4995728l0 36.76602c0 5.0765076 -4.1152954 9.191803 -9.191772 9.191803l-193.74237 0c-5.076538 0 -9.1918335 -4.1152954 -9.1918335 -9.191803z" fill-rule="evenodd"/><path stroke="#000000" stroke-width="1.0" stroke-linejoin="round" stroke-linecap="butt" d="m673.3202 338.9923l0 0c0 -5.076477 4.1152954 -9.191772 9.1918335 -9.191772l193.74237 0c2.4378052 0 4.775818 0.9684143 6.4995728 2.6921997c1.7238159 1.7237854 2.6921997 4.0617676 2.6921997 6.4995728l0 36.76602c0 5.0765076 -4.1152954 9.191803 -9.191772 9.191803l-193.74237 0c-5.076538 0 -9.1918335 -4.1152954 -9.1918335 -9.191803z" fill-rule="evenodd"/><path fill="#ffffff" d="m730.60266 362.45532l0 -10.421875l2.953125 0q1.359375 0 2.390625 0.609375q1.046875 0.59375 1.609375 1.703125q0.578125 1.109375 0.59375 2.546875l0 0.671875q0 1.46875 -0.578125 2.578125q-0.5625 1.109375 -1.625 1.703125q-1.046875 0.59375 -2.453125 0.609375l-2.890625 0zm1.375 -9.28125l0 8.15625l1.453125 0q1.59375 0 2.46875 -0.984375q0.890625 -0.984375 0.890625 -2.8125l0 -0.609375q0 -1.78125 -0.84375 -2.765625q-0.828125 -0.984375 -2.359375 -0.984375l-1.609375 0zm7.689148 5.34375q0 -1.140625 0.4375 -2.046875q0.453125 -0.921875 1.25 -1.40625q0.796875 -0.5 1.828125 -0.5q1.578125 0 2.546875 1.09375q0.984375 1.09375 0.984375 2.921875l0 0.09375q0 1.125 -0.4375 2.03125q-0.4375 0.890625 -1.25 1.390625q-0.796875 0.5 -1.84375 0.5q-1.5625 0 -2.546875 -1.09375q-0.96875 -1.09375 -0.96875 -2.890625l0 -0.09375zm1.328125 0.15625q0 1.28125 0.59375 2.0625q0.59375 0.78125 1.59375 0.78125q1.015625 0 1.609375 -0.78125q0.59375 -0.796875 0.59375 -2.21875q0 -1.28125 -0.609375 -2.0625q-0.59375 -0.796875 -1.59375 -0.796875q-0.984375 0 -1.59375 0.78125q-0.59375 0.78125 -0.59375 2.234375zm10.483643 2.84375q0.703125 0 1.234375 -0.421875q0.53125 -0.4375 0.59375 -1.078125l1.25 0q-0.03125 0.65625 -0.453125 1.265625q-0.421875 0.59375 -1.140625 0.953125q-0.703125 0.359375 -1.484375 0.359375q-1.578125 0 -2.515625 -1.046875q-0.9375 -1.0625 -0.9375 -2.890625l0 -0.21875q0 -1.140625 0.40625 -2.015625q0.421875 -0.875 1.203125 -1.359375q0.78125 -0.5 1.828125 -0.5q1.3125 0 2.171875 0.78125q0.859375 0.78125 0.921875 2.03125l-1.25 0q-0.0625 -0.75 -0.578125 -1.234375q-0.5 -0.484375 -1.265625 -0.484375q-1.0 0 -1.5625 0.734375q-0.546875 0.71875 -0.546875 2.09375l0 0.25q0 1.328125 0.546875 2.0625q0.546875 0.71875 1.578125 0.71875zm9.343506 0.171875q-0.765625 0.90625 -2.265625 0.90625q-1.234375 0 -1.890625 -0.71875q-0.640625 -0.71875 -0.65625 -2.125l0 -5.046875l1.328125 0l0 5.015625q0 1.75 1.4375 1.75q1.515625 0 2.015625 -1.125l0 -5.640625l1.328125 0l0 7.75l-1.265625 0l-0.03125 -0.765625zm4.548279 -6.984375l0.03125 0.859375q0.859375 -1.0 2.296875 -1.0q1.625 0 2.21875 1.25q0.375 -0.5625 1.0 -0.90625q0.625 -0.34375 1.46875 -0.34375q2.546875 0 2.578125 2.703125l0 5.1875l-1.3125 0l0 -5.109375q0 -0.828125 -0.390625 -1.234375q-0.375 -0.421875 -1.265625 -0.421875q-0.734375 0 -1.234375 0.453125q-0.484375 0.4375 -0.5625 1.171875l0 5.140625l-1.328125 0l0 -5.078125q0 -1.6875 -1.65625 -1.6875q-1.296875 0 -1.78125 1.109375l0 5.65625l-1.3125 0l0 -7.75l1.25 0zm14.814453 7.890625q-1.578125 0 -2.5625 -1.03125q-0.984375 -1.03125 -0.984375 -2.765625l0 -0.25q0 -1.140625 0.4375 -2.046875q0.4375 -0.90625 1.21875 -1.421875q0.796875 -0.515625 1.71875 -0.515625q1.515625 0 2.34375 1.0q0.84375 1.0 0.84375 2.84375l0 0.546875l-5.25 0q0.03125 1.15625 0.671875 1.859375q0.640625 0.703125 1.625 0.703125q0.703125 0 1.1875 -0.28125q0.5 -0.296875 0.859375 -0.765625l0.8125 0.625q-0.984375 1.5 -2.921875 1.5zm-0.171875 -6.9375q-0.796875 0 -1.34375 0.59375q-0.546875 0.578125 -0.671875 1.625l3.875 0l0 -0.109375q-0.046875 -1.0 -0.546875 -1.546875q-0.484375 -0.5625 -1.3125 -0.5625zm5.9677734 -0.953125l0.046875 0.984375q0.890625 -1.125 2.3125 -1.125q2.46875 0 2.484375 2.78125l0 5.109375l-1.328125 0l0 -5.125q0 -0.84375 -0.375 -1.234375q-0.375 -0.40625 -1.171875 -0.40625q-0.640625 0 -1.140625 0.34375q-0.484375 0.34375 -0.75 0.90625l0 5.515625l-1.328125 0l0 -7.75l1.25 0zm8.633545 -1.875l0 1.875l1.453125 0l0 1.03125l-1.453125 0l0 4.796875q0 0.46875 0.1875 0.703125q0.203125 0.234375 0.671875 0.234375q0.21875 0 0.625 -0.09375l0 1.078125q-0.53125 0.140625 -1.015625 0.140625q-0.890625 0 -1.34375 -0.53125q-0.453125 -0.546875 -0.453125 -1.53125l0 -4.796875l-1.40625 0l0 -1.03125l1.40625 0l0 -1.875l1.328125 0zm7.7720337 9.625q-0.109375 -0.234375 -0.1875 -0.8125q-0.921875 0.953125 -2.203125 0.953125q-1.140625 0 -1.875 -0.640625q-0.734375 -0.65625 -0.734375 -1.640625q0 -1.21875 0.921875 -1.875q0.921875 -0.671875 2.578125 -0.671875l1.296875 0l0 -0.609375q0 -0.703125 -0.421875 -1.109375q-0.40625 -0.40625 -1.21875 -0.40625q-0.703125 0 -1.1875 0.359375q-0.484375 0.34375 -0.484375 0.859375l-1.328125 0q0 -0.578125 0.40625 -1.109375q0.421875 -0.546875 1.125 -0.859375q0.703125 -0.328125 1.546875 -0.328125q1.34375 0 2.09375 0.671875q0.765625 0.671875 0.796875 1.84375l0 3.5625q0 1.0625 0.265625 1.703125l0 0.109375l-1.390625 0zm-2.203125 -1.015625q0.625 0 1.1875 -0.3125q0.5625 -0.328125 0.8125 -0.84375l0 -1.578125l-1.046875 0q-2.421875 0 -2.421875 1.421875q0 0.625 0.40625 0.96875q0.421875 0.34375 1.0625 0.34375zm7.190918 -8.609375l0 1.875l1.453125 0l0 1.03125l-1.453125 0l0 4.796875q0 0.46875 0.1875 0.703125q0.203125 0.234375 0.671875 0.234375q0.21875 0 0.625 -0.09375l0 1.078125q-0.53125 0.140625 -1.015625 0.140625q-0.890625 0 -1.34375 -0.53125q-0.453125 -0.546875 -0.453125 -1.53125l0 -4.796875l-1.40625 0l0 -1.03125l1.40625 0l0 -1.875l1.328125 0zm4.4282227 9.625l-1.328125 0l0 -7.75l1.328125 0l0 7.75zm-1.421875 -9.796875q0 -0.328125 0.1875 -0.546875q0.203125 -0.21875 0.578125 -0.21875q0.390625 0 0.59375 0.21875q0.203125 0.21875 0.203125 0.546875q0 0.328125 -0.203125 0.546875q-0.203125 0.203125 -0.59375 0.203125q-0.375 0 -0.578125 -0.203125q-0.1875 -0.21875 -0.1875 -0.546875zm3.1973877 5.859375q0 -1.140625 0.4375 -2.046875q0.453125 -0.921875 1.25 -1.40625q0.796875 -0.5 1.828125 -0.5q1.578125 0 2.546875 1.09375q0.984375 1.09375 0.984375 2.921875l0 0.09375q0 1.125 -0.4375 2.03125q-0.4375 0.890625 -1.25 1.390625q-0.796875 0.5 -1.84375 0.5q-1.5625 0 -2.546875 -1.09375q-0.96875 -1.09375 -0.96875 -2.890625l0 -0.09375zm1.328125 0.15625q0 1.28125 0.59375 2.0625q0.59375 0.78125 1.59375 0.78125q1.015625 0 1.609375 -0.78125q0.59375 -0.796875 0.59375 -2.21875q0 -1.28125 -0.609375 -2.0625q-0.59375 -0.796875 -1.59375 -0.796875q-0.984375 0 -1.59375 0.78125q-0.59375 0.78125 -0.59375 2.234375zm8.624268 -3.96875l0.046875 0.984375q0.890625 -1.125 2.3125 -1.125q2.46875 0 2.484375 2.78125l0 5.109375l-1.328125 0l0 -5.125q0 -0.84375 -0.375 -1.234375q-0.375 -0.40625 -1.171875 -0.40625q-0.640625 0 -1.140625 0.34375q-0.484375 0.34375 -0.75 0.90625l0 5.515625l-1.328125 0l0 -7.75l1.25 0z" fill-rule="nonzero"/><path fill="#000000" fill-opacity="0.0" d="m673.3202 269.06824l-20.0 0l0 44.15747l-20.0 0" fill-rule="evenodd"/><path stroke="#c2c2c2" stroke-width="1.0" stroke-linejoin="round" stroke-linecap="butt" d="m673.3202 269.06824l-20.0 0l0 44.15747l-20.0 0" fill-rule="evenodd"/><path fill="#000000" fill-opacity="0.0" d="m673.3202 357.37534l-20.0 0l0 -44.1575l-20.0 0" fill-rule="evenodd"/><path stroke="#c2c2c2" stroke-width="1.0" stroke-linejoin="round" stroke-linecap="butt" d="m673.3202 357.37534l-20.0 0l0 -44.1575l-20.0 0" fill-rule="evenodd"/><path fill="#212121" d="m673.3202 445.13928l0 0c0 -5.076477 4.1152954 -9.191772 9.1918335 -9.191772l193.74237 0c2.4378052 0 4.775818 0.9684143 6.4995728 2.6921997c1.7238159 1.7238159 2.6921997 4.0617676 2.6921997 6.4995728l0 36.766052c0 5.076477 -4.1152954 9.191772 -9.191772 9.191772l-193.74237 0c-5.076538 0 -9.1918335 -4.1152954 -9.1918335 -9.191772z" fill-rule="evenodd"/><path stroke="#000000" stroke-width="1.0" stroke-linejoin="round" stroke-linecap="butt" d="m673.3202 445.13928l0 0c0 -5.076477 4.1152954 -9.191772 9.1918335 -9.191772l193.74237 0c2.4378052 0 4.775818 0.9684143 6.4995728 2.6921997c1.7238159 1.7238159 2.6921997 4.0617676 2.6921997 6.4995728l0 36.766052c0 5.076477 -4.1152954 9.191772 -9.191772 9.191772l-193.74237 0c-5.076538 0 -9.1918335 -4.1152954 -9.1918335 -9.191772z" fill-rule="evenodd"/><path fill="#ffffff" d="m710.44775 463.7898l-4.515625 0l0 3.6875l5.25 0l0 1.125l-6.625 0l0 -10.421875l6.546875 0l0 1.140625l-5.171875 0l0 3.34375l4.515625 0l0 1.125zm3.486267 -2.9375l0.046875 0.984375q0.890625 -1.125 2.3125 -1.125q2.46875 0 2.484375 2.78125l0 5.109375l-1.328125 0l0 -5.125q0 -0.84375 -0.375 -1.234375q-0.375 -0.40625 -1.171875 -0.40625q-0.640625 0 -1.140625 0.34375q-0.484375 0.34375 -0.75 0.90625l0 5.515625l-1.328125 0l0 -7.75l1.25 0zm9.39917 5.953125l1.90625 -5.953125l1.359375 0l-2.78125 7.75l-1.0 0l-2.8125 -7.75l1.359375 0l1.96875 5.953125zm5.974121 1.796875l-1.328125 0l0 -7.75l1.328125 0l0 7.75zm-1.421875 -9.796875q0 -0.328125 0.1875 -0.546875q0.203125 -0.21875 0.578125 -0.21875q0.390625 0 0.59375 0.21875q0.203125 0.21875 0.203125 0.546875q0 0.328125 -0.203125 0.546875q-0.203125 0.203125 -0.59375 0.203125q-0.375 0 -0.578125 -0.203125q-0.1875 -0.21875 -0.1875 -0.546875zm7.2911377 3.234375q-0.3125 -0.046875 -0.65625 -0.046875q-1.296875 0 -1.765625 1.109375l0 5.5l-1.328125 0l0 -7.75l1.296875 0l0.015625 0.90625q0.65625 -1.046875 1.84375 -1.046875q0.390625 0 0.59375 0.109375l0 1.21875zm0.7223511 2.625q0 -1.140625 0.4375 -2.046875q0.453125 -0.921875 1.25 -1.40625q0.796875 -0.5 1.828125 -0.5q1.578125 0 2.546875 1.09375q0.984375 1.09375 0.984375 2.921875l0 0.09375q0 1.125 -0.4375 2.03125q-0.4375 0.890625 -1.25 1.390625q-0.796875 0.5 -1.84375 0.5q-1.5625 0 -2.546875 -1.09375q-0.96875 -1.09375 -0.96875 -2.890625l0 -0.09375zm1.328125 0.15625q0 1.28125 0.59375 2.0625q0.59375 0.78125 1.59375 0.78125q1.015625 0 1.609375 -0.78125q0.59375 -0.796875 0.59375 -2.21875q0 -1.28125 -0.609375 -2.0625q-0.59375 -0.796875 -1.59375 -0.796875q-0.984375 0 -1.59375 0.78125q-0.59375 0.78125 -0.59375 2.234375zm8.624268 -3.96875l0.046875 0.984375q0.890625 -1.125 2.3125 -1.125q2.46875 0 2.484375 2.78125l0 5.109375l-1.328125 0l0 -5.125q0 -0.84375 -0.375 -1.234375q-0.375 -0.40625 -1.171875 -0.40625q-0.640625 0 -1.140625 0.34375q-0.484375 0.34375 -0.75 0.90625l0 5.515625l-1.328125 0l0 -7.75l1.25 0zm8.086731 0l0.03125 0.859375q0.859375 -1.0 2.296875 -1.0q1.625 0 2.21875 1.25q0.375 -0.5625 1.0 -0.90625q0.625 -0.34375 1.46875 -0.34375q2.546875 0 2.578125 2.703125l0 5.1875l-1.3125 0l0 -5.109375q0 -0.828125 -0.390625 -1.234375q-0.375 -0.421875 -1.265625 -0.421875q-0.734375 0 -1.234375 0.453125q-0.484375 0.4375 -0.5625 1.171875l0 5.140625l-1.328125 0l0 -5.078125q0 -1.6875 -1.65625 -1.6875q-1.296875 0 -1.78125 1.109375l0 5.65625l-1.3125 0l0 -7.75l1.25 0zm14.814392 7.890625q-1.578125 0 -2.5625 -1.03125q-0.984375 -1.03125 -0.984375 -2.765625l0 -0.25q0 -1.140625 0.4375 -2.046875q0.4375 -0.90625 1.21875 -1.421875q0.796875 -0.515625 1.71875 -0.515625q1.515625 0 2.34375 1.0q0.84375 1.0 0.84375 2.84375l0 0.546875l-5.25 0q0.03125 1.15625 0.671875 1.859375q0.640625 0.703125 1.625 0.703125q0.703125 0 1.1875 -0.28125q0.5 -0.296875 0.859375 -0.765625l0.8125 0.625q-0.984375 1.5 -2.921875 1.5zm-0.171875 -6.9375q-0.796875 0 -1.34375 0.59375q-0.546875 0.578125 -0.671875 1.625l3.875 0l0 -0.109375q-0.046875 -1.0 -0.546875 -1.546875q-0.484375 -0.5625 -1.3125 -0.5625zm5.9678345 -0.953125l0.046875 0.984375q0.890625 -1.125 2.3125 -1.125q2.46875 0 2.484375 2.78125l0 5.109375l-1.328125 0l0 -5.125q0 -0.84375 -0.375 -1.234375q-0.375 -0.40625 -1.171875 -0.40625q-0.640625 0 -1.140625 0.34375q-0.484375 0.34375 -0.75 0.90625l0 5.515625l-1.328125 0l0 -7.75l1.25 0zm8.633545 -1.875l0 1.875l1.453125 0l0 1.03125l-1.453125 0l0 4.796875q0 0.46875 0.1875 0.703125q0.203125 0.234375 0.671875 0.234375q0.21875 0 0.625 -0.09375l0 1.078125q-0.53125 0.140625 -1.015625 0.140625q-0.890625 0 -1.34375 -0.53125q-0.453125 -0.546875 -0.453125 -1.53125l0 -4.796875l-1.40625 0l0 -1.03125l1.40625 0l0 -1.875l1.328125 0zm7.7719727 9.625q-0.109375 -0.234375 -0.1875 -0.8125q-0.921875 0.953125 -2.203125 0.953125q-1.140625 0 -1.875 -0.640625q-0.734375 -0.65625 -0.734375 -1.640625q0 -1.21875 0.921875 -1.875q0.921875 -0.671875 2.578125 -0.671875l1.296875 0l0 -0.609375q0 -0.703125 -0.421875 -1.109375q-0.40625 -0.40625 -1.21875 -0.40625q-0.703125 0 -1.1875 0.359375q-0.484375 0.34375 -0.484375 0.859375l-1.328125 0q0 -0.578125 0.40625 -1.109375q0.421875 -0.546875 1.125 -0.859375q0.703125 -0.328125 1.546875 -0.328125q1.34375 0 2.09375 0.671875q0.765625 0.671875 0.796875 1.84375l0 3.5625q0 1.0625 0.265625 1.703125l0 0.109375l-1.390625 0zm-2.203125 -1.015625q0.625 0 1.1875 -0.3125q0.5625 -0.328125 0.8125 -0.84375l0 -1.578125l-1.046875 0q-2.421875 0 -2.421875 1.421875q0 0.625 0.40625 0.96875q0.421875 0.34375 1.0625 0.34375zm6.831604 1.015625l-1.328125 0l0 -11.0l1.328125 0l0 11.0zm7.3256226 -4.078125l0 4.078125l-1.375 0l0 -10.421875l3.84375 0q1.71875 0 2.6875 0.875q0.96875 0.875 0.96875 2.3125q0 1.515625 -0.953125 2.34375q-0.9375 0.8125 -2.71875 0.8125l-2.453125 0zm0 -1.125l2.46875 0q1.109375 0 1.6875 -0.515625q0.59375 -0.515625 0.59375 -1.5q0 -0.9375 -0.59375 -1.484375q-0.578125 -0.5625 -1.609375 -0.578125l-2.546875 0l0 4.078125zm12.370361 5.203125q-0.109375 -0.234375 -0.1875 -0.8125q-0.921875 0.953125 -2.203125 0.953125q-1.140625 0 -1.875 -0.640625q-0.734375 -0.65625 -0.734375 -1.640625q0 -1.21875 0.921875 -1.875q0.921875 -0.671875 2.578125 -0.671875l1.296875 0l0 -0.609375q0 -0.703125 -0.421875 -1.109375q-0.40625 -0.40625 -1.21875 -0.40625q-0.703125 0 -1.1875 0.359375q-0.484375 0.34375 -0.484375 0.859375l-1.328125 0q0 -0.578125 0.40625 -1.109375q0.421875 -0.546875 1.125 -0.859375q0.703125 -0.328125 1.546875 -0.328125q1.34375 0 2.09375 0.671875q0.765625 0.671875 0.796875 1.84375l0 3.5625q0 1.0625 0.265625 1.703125l0 0.109375l-1.390625 0zm-2.203125 -1.015625q0.625 0 1.1875 -0.3125q0.5625 -0.328125 0.8125 -0.84375l0 -1.578125l-1.046875 0q-2.421875 0 -2.421875 1.421875q0 0.625 0.40625 0.96875q0.421875 0.34375 1.0625 0.34375zm7.190979 -8.609375l0 1.875l1.453125 0l0 1.03125l-1.453125 0l0 4.796875q0 0.46875 0.1875 0.703125q0.203125 0.234375 0.671875 0.234375q0.21875 0 0.625 -0.09375l0 1.078125q-0.53125 0.140625 -1.015625 0.140625q-0.890625 0 -1.34375 -0.53125q-0.453125 -0.546875 -0.453125 -1.53125l0 -4.796875l-1.40625 0l0 -1.03125l1.40625 0l0 -1.875l1.328125 0zm4.7875977 0l0 1.875l1.453125 0l0 1.03125l-1.453125 0l0 4.796875q0 0.46875 0.1875 0.703125q0.203125 0.234375 0.671875 0.234375q0.21875 0 0.625 -0.09375l0 1.078125q-0.53125 0.140625 -1.015625 0.140625q-0.890625 0 -1.34375 -0.53125q-0.453125 -0.546875 -0.453125 -1.53125l0 -4.796875l-1.40625 0l0 -1.03125l1.40625 0l0 -1.875l1.328125 0zm6.2094727 9.765625q-1.578125 0 -2.5625 -1.03125q-0.984375 -1.03125 -0.984375 -2.765625l0 -0.25q0 -1.140625 0.4375 -2.046875q0.4375 -0.90625 1.21875 -1.421875q0.796875 -0.515625 1.71875 -0.515625q1.515625 0 2.34375 1.0q0.84375 1.0 0.84375 2.84375l0 0.546875l-5.25 0q0.03125 1.15625 0.671875 1.859375q0.640625 0.703125 1.625 0.703125q0.703125 0 1.1875 -0.28125q0.5 -0.296875 0.859375 -0.765625l0.8125 0.625q-0.984375 1.5 -2.921875 1.5zm-0.171875 -6.9375q-0.796875 0 -1.34375 0.59375q-0.546875 0.578125 -0.671875 1.625l3.875 0l0 -0.109375q-0.046875 -1.0 -0.546875 -1.546875q-0.484375 -0.5625 -1.3125 -0.5625zm8.467773 0.234375q-0.3125 -0.046875 -0.65625 -0.046875q-1.296875 0 -1.765625 1.109375l0 5.5l-1.328125 0l0 -7.75l1.296875 0l0.015625 0.90625q0.65625 -1.046875 1.84375 -1.046875q0.390625 0 0.59375 0.109375l0 1.21875zm2.4594116 -1.1875l0.046875 0.984375q0.890625 -1.125 2.3125 -1.125q2.46875 0 2.484375 2.78125l0 5.109375l-1.328125 0l0 -5.125q0 -0.84375 -0.375 -1.234375q-0.375 -0.40625 -1.171875 -0.40625q-0.640625 0 -1.140625 0.34375q-0.484375 0.34375 -0.75 0.90625l0 5.515625l-1.328125 0l0 -7.75l1.25 0zm11.352295 5.703125q0 -0.546875 -0.40625 -0.84375q-0.40625 -0.296875 -1.421875 -0.5q-1.0 -0.21875 -1.59375 -0.515625q-0.578125 -0.3125 -0.875 -0.71875q-0.28125 -0.421875 -0.28125 -1.0q0 -0.9375 0.8125 -1.59375q0.8125 -0.671875 2.0625 -0.671875q1.3125 0 2.125 0.6875q0.828125 0.671875 0.828125 1.734375l-1.328125 0q0 -0.546875 -0.46875 -0.9375q-0.453125 -0.390625 -1.15625 -0.390625q-0.734375 0 -1.140625 0.3125q-0.40625 0.3125 -0.40625 0.828125q0 0.46875 0.375 0.71875q0.390625 0.25 1.375 0.46875q1.0 0.21875 1.609375 0.53125q0.609375 0.296875 0.90625 0.734375q0.296875 0.4375 0.296875 1.0625q0 1.03125 -0.828125 1.65625q-0.828125 0.625 -2.15625 0.625q-0.921875 0 -1.640625 -0.328125q-0.71875 -0.328125 -1.125 -0.921875q-0.390625 -0.59375 -0.390625 -1.28125l1.3125 0q0.046875 0.671875 0.53125 1.0625q0.5 0.390625 1.3125 0.390625q0.75 0 1.203125 -0.296875q0.46875 -0.3125 0.46875 -0.8125z" fill-rule="nonzero"/><path fill="#000000" fill-opacity="0.0" d="m673.3202 463.5223l-20.0 0l0 -55.149597l-20.0 0" fill-rule="evenodd"/><path stroke="#c2c2c2" stroke-width="1.0" stroke-linejoin="round" stroke-linecap="butt" d="m673.3202 463.5223l-20.0 0l0 -55.149597l-20.0 0" fill-rule="evenodd"/></g></svg>